
<svg xmlns="http://www.w3.org/2000/svg" viewBox="0 0 256 256"><defs><style>.cls-1{fill:#52e355;}.cls-2{fill:#90fc95;}.cls-3{fill:#2fb1ea;}.cls-4{fill:#cbecf9;}.cls-5{fill:#fff;}.cls-6{fill:#f88;}.cls-7{fill:#a4ecff;}.cls-8{fill:#ffe76e;}.cls-9{fill:#d4ffd4;}.cls-10{fill:#ffbdbd;}.cls-11{fill:#bbf1ff;}.cls-12{fill:#fff4c5;}</style></defs><title>business economic finance interprise company presentation</title><g id="Layer_2" data-name="Layer 2"><rect class="cls-1" x="24" y="24" width="208" height="20" rx="10" ry="10"/><rect class="cls-2" x="24" y="24" width="198.51" height="13.2" rx="6.15" ry="6.15"/><path class="cls-3" d="M222,46H34a12,12,0,0,1,0-24H222a12,12,0,0,1,0,24ZM34,26a8,8,0,0,0,0,16H222a8,8,0,0,0,0-16Z"/><rect class="cls-1" x="24" y="172" width="208" height="20" rx="10" ry="10"/><rect class="cls-2" x="24" y="172" width="198.51" height="13.2" rx="6.15" ry="6.15"/><path class="cls-3" d="M222,194H34a12,12,0,0,1,0-24H222a12,12,0,0,1,0,24ZM34,174a8,8,0,0,0,0,16H222a8,8,0,0,0,0-16Z"/><rect class="cls-4" x="44" y="44" width="168" height="128"/><rect class="cls-5" x="44" y="54.44" width="168" height="117.56"/><path class="cls-3" d="M212,174H44a2,2,0,0,1-2-2V44a2,2,0,0,1,2-2H212a2,2,0,0,1,2,2V172A2,2,0,0,1,212,174ZM46,170H210V46H46Z"/><circle class="cls-6" cx="128" cy="222" r="10"/><path class="cls-3" d="M128,234a12,12,0,1,1,12-12A12,12,0,0,1,128,234Zm0-20a8,8,0,1,0,8,8A8,8,0,0,0,128,214Z"/><path class="cls-3" d="M128,214a2,2,0,0,1-2-2V192a2,2,0,0,1,4,0v20A2,2,0,0,1,128,214Z"/><path class="cls-6" d="M200,79.67a24,24,0,0,0-22-23.58V79.67Z"/><path class="cls-7" d="M174,56.09a24,24,0,1,0,16.57,43L174,82.5Z"/><path class="cls-8" d="M180.83,83.67l12.71,12.71a23.92,23.92,0,0,0,6.19-12.71Z"/><rect class="cls-8" x="59.22" y="65.25" width="14.09" height="91.64" rx="7.04" ry="7.04"/><rect class="cls-8" x="79.54" y="96.38" width="14.09" height="60.51" rx="7.04" ry="7.04"/><rect class="cls-8" x="99.86" y="108" width="14.09" height="48.89" rx="7.04" ry="7.04"/><rect class="cls-8" x="120.18" y="74.22" width="14.09" height="82.67" rx="7.04" ry="7.04"/><circle class="cls-9" cx="232" cy="128" r="5"/><circle class="cls-9" cx="100" cy="208" r="4"/><circle class="cls-9" cx="224" cy="202" r="3"/><circle class="cls-9" cx="31" cy="144" r="2"/><circle class="cls-9" cx="38" cy="51" r="1"/><circle class="cls-10" cx="29" cy="95" r="5"/><circle class="cls-10" cx="18" cy="44" r="4"/><circle class="cls-10" cx="15" cy="170" r="3"/><circle class="cls-10" cx="232" cy="53" r="2"/><circle class="cls-10" cx="240" cy="146" r="1"/><circle class="cls-11" cx="152" cy="211" r="5"/><circle class="cls-11" cx="12" cy="132" r="4"/><circle class="cls-11" cx="5" cy="90" r="3"/><circle class="cls-11" cx="33" cy="206" r="2"/><circle class="cls-11" cx="42" cy="203" r="1"/><circle class="cls-12" cx="249" cy="193" r="5"/><circle class="cls-12" cx="224" cy="89" r="4"/><circle class="cls-12" cx="74" cy="203" r="3"/><circle class="cls-12" cx="181" cy="204" r="2"/><circle class="cls-12" cx="228" cy="67" r="1"/></g></svg>